<svg width="31" height="30" fill="none" xmlns="http://www.w3.org/2000/svg"><path d="M15.82 0a15 15 0 00-4.744 29.231c.75.131 1.031-.319 1.031-.713 0-.356-.019-1.537-.019-2.793-3.768.694-4.743-.919-5.043-1.763a5.454 5.454 0 00-1.538-2.118c-.525-.282-1.275-.975-.019-.994a3 3 0 012.307 1.537 3.206 3.206 0 004.368 1.238 3.156 3.156 0 01.957-2.006c-3.338-.375-6.825-1.67-6.825-7.407a5.838 5.838 0 011.537-4.03 5.39 5.39 0 01.15-3.976s1.256-.394 4.125 1.538a14.141 14.141 0 017.5 0c2.869-1.95 4.125-1.538 4.125-1.538a5.39 5.39 0 01.15 3.975 5.804 5.804 0 011.537 4.031c0 5.757-3.506 7.032-6.843 7.407a3.553 3.553 0 011.012 2.775c0 2.006-.018 3.618-.018 4.125 0 .393.28.862 1.03.712A15.007 15.007 0 0015.82 0z" fill="#fff"/></svg>