<svg width="115" height="35" fill="none" xmlns="http://www.w3.org/2000/svg"><path d="M2.494 34V22.228h3.762c.612 0 1.17.054 1.674.162.516.096.96.258 1.332.486.384.216.678.51.882.882.216.372.324.828.324 1.368 0 .564-.144 1.086-.432 1.566-.288.48-.69.81-1.206.99v.072c.648.144 1.182.45 1.602.918.432.456.648 1.08.648 1.872 0 .588-.114 1.098-.342 1.53a3.05 3.05 0 01-.954 1.08 4.19 4.19 0 01-1.422.648 7.732 7.732 0 01-1.8.198H2.494zm2.088-6.912h1.494c.828 0 1.422-.15 1.782-.45.372-.3.558-.702.558-1.206 0-.576-.192-.984-.576-1.224-.384-.24-.96-.36-1.728-.36h-1.53v3.24zm0 5.292h1.764c.864 0 1.53-.156 1.998-.468.468-.324.702-.816.702-1.476 0-.624-.228-1.074-.684-1.35-.456-.288-1.128-.432-2.016-.432H4.582v3.726zm13.064-4.644l-.414 1.44h3.006l-.414-1.44a62.207 62.207 0 01-.558-1.926c-.168-.66-.336-1.314-.504-1.962h-.072l-.504 1.98a44.241 44.241 0 01-.54 1.908zM13.704 34l3.834-11.772h2.448L23.82 34h-2.196l-.918-3.186h-3.96L15.828 34h-2.124zm13.567 0V22.228h2.088v10.008h4.896V34h-6.984zm11.035 0V22.228h2.358l2.088 5.76c.132.372.258.756.378 1.152.12.384.246.768.378 1.152h.072a21.2 21.2 0 00.36-1.152c.12-.396.246-.78.378-1.152l2.034-5.76h2.376V34h-1.926v-5.382c0-.276.006-.576.018-.9l.072-.972c.024-.336.054-.66.09-.972.036-.324.066-.624.09-.9H47l-.954 2.736-1.926 5.292h-1.242l-1.944-5.292-.936-2.736h-.072c.024.276.048.576.072.9.036.312.066.636.09.972.036.324.06.648.072.972.024.324.036.624.036.9V34h-1.89zm17.824-6.264l-.413 1.44h3.005l-.413-1.44a62.207 62.207 0 01-.558-1.926c-.168-.66-.337-1.314-.505-1.962h-.072l-.504 1.98a44.241 44.241 0 01-.54 1.908zM52.188 34l3.834-11.772h2.449L62.305 34h-2.197l-.917-3.186h-3.96L54.312 34H52.19zm13.568 0V22.228h2.088v5.346h.054l4.194-5.346h2.322l-3.618 4.59L75.026 34h-2.304l-3.186-5.544-1.692 2.106V34h-2.088zm16.869.216a5.618 5.618 0 01-1.854-.288 3.614 3.614 0 01-1.404-.954c-.384-.432-.684-.984-.9-1.656-.204-.684-.306-1.512-.306-2.484v-6.606h2.088v6.768c0 .636.054 1.176.162 1.62.12.432.282.78.486 1.044.216.264.468.456.756.576.288.108.612.162.972.162s.69-.054.99-.162c.3-.12.558-.312.774-.576.216-.264.384-.612.504-1.044.12-.444.18-.984.18-1.62v-6.768h1.998v6.606c0 .972-.102 1.8-.306 2.484-.204.672-.504 1.224-.9 1.656-.384.432-.852.75-1.404.954-.54.192-1.152.288-1.836.288zM92.01 34V22.228h2.141l3.672 6.624 1.207 2.502h.072a79.666 79.666 0 00-.18-1.962c-.06-.708-.09-1.392-.09-2.052v-5.112h1.998V34h-2.142l-3.672-6.624-1.207-2.502h-.072c.049.624.103 1.278.163 1.962.072.684.107 1.356.107 2.016V34H92.01zm13.812 0V22.228h3.15c1.8 0 3.204.486 4.212 1.458 1.008.972 1.512 2.43 1.512 4.374 0 .972-.132 1.83-.396 2.574-.252.744-.624 1.368-1.116 1.872a4.62 4.62 0 01-1.764 1.116c-.684.252-1.464.378-2.34.378h-3.258zm2.088-1.692h.918c1.2 0 2.118-.342 2.754-1.026.648-.696.972-1.77.972-3.222 0-1.44-.324-2.49-.972-3.15-.648-.66-1.566-.99-2.754-.99h-.918v8.388z" fill="#fff"/><path d="M6.208 7.648l-.552 1.92h4.008l-.552-1.92a82.942 82.942 0 01-.744-2.568c-.224-.88-.448-1.752-.672-2.616H7.6l-.672 2.64a58.988 58.988 0 01-.72 2.544zM.952 16L6.064.304h3.264L14.44 16h-2.928l-1.224-4.248h-5.28L3.784 16H.952zm17.423 0V.304h2.856l4.896 8.832 1.608 3.336h.096c-.064-.816-.144-1.688-.24-2.616-.08-.944-.12-1.856-.12-2.736V.304h2.664V16h-2.856l-4.896-8.832-1.608-3.336h-.096c.064.832.136 1.704.216 2.616.096.912.144 1.808.144 2.688V16h-2.664zm17.75 0V.304h4.2c2.4 0 4.272.648 5.616 1.944 1.344 1.296 2.016 3.24 2.016 5.832 0 1.296-.176 2.44-.528 3.432-.336.992-.832 1.824-1.488 2.496-.64.656-1.424 1.152-2.352 1.488-.912.336-1.952.504-3.12.504h-4.344zm2.784-2.256h1.224c1.6 0 2.824-.456 3.672-1.368.864-.928 1.296-2.36 1.296-4.296 0-1.92-.432-3.32-1.296-4.2-.864-.88-2.088-1.32-3.672-1.32h-1.224v11.184zM53.125 16V.304h5.304c.816 0 1.576.08 2.28.24.704.16 1.312.424 1.824.792.512.352.912.824 1.2 1.416.304.592.456 1.328.456 2.208 0 1.2-.288 2.168-.864 2.904-.56.736-1.312 1.264-2.256 1.584L64.813 16h-3.12l-3.384-6.144h-2.4V16h-2.784zm2.784-8.352h2.232c1.072 0 1.888-.224 2.448-.672.576-.448.864-1.12.864-2.016 0-.912-.288-1.544-.864-1.896-.56-.352-1.376-.528-2.448-.528h-2.232v5.112zM69.328 16V.304h9.456v2.352h-6.672v4.008h5.64v2.352h-5.64v4.632h6.912V16h-9.696zm16.474 0L82.682.304h2.856l1.368 7.92c.128.848.256 1.688.384 2.52l.384 2.496h.096c.176-.832.344-1.664.504-2.496.176-.848.352-1.688.528-2.52l1.92-7.92h2.424l1.92 7.92c.176.816.352 1.648.528 2.496.176.832.352 1.672.528 2.52h.096c.128-.848.248-1.688.36-2.52l.384-2.496L98.33.304h2.664l-3 15.696h-3.456l-1.944-8.256c-.128-.608-.256-1.208-.384-1.8a72.379 72.379 0 01-.312-1.824h-.096a73.404 73.404 0 01-.36 1.824 89.485 89.485 0 01-.36 1.8L89.186 16h-3.384z" fill="#4C75F2"/></svg>