<svg width="793" height="422" fill="none" xmlns="http://www.w3.org/2000/svg"><g clip-path="url(#clip0)"><path opacity=".1" d="M732.199 333.696a754 754 0 01-2.642 5.635 1842.976 1842.976 0 01-4.059 8.468c-.594 1.226-1.188 2.429-1.767 3.632a1126.147 1126.147 0 01-17.858 34.946 55.75 55.75 0 01-48.594 29.47l-115.486 1.256h-1.219l-9.9.107-8.468.091-25.968.282h-1.051l-13.22.144h-.404l-81.484.884-72.734.761-8.461.092-52.545.571h-.061l-34.079.365h-.366l-107.756 1.165-32.236.351a67.11 67.11 0 01-20.31-2.909 65.786 65.786 0 01-29.769-18.847c-13.844-15.253-23.935-33.049-30.712-52.361-.98-2.787-1.894-5.61-2.742-8.468-23.463-79.31 5.14-181.633 56.62-250.107a263.217 263.217 0 016.58-8.376l.053-.061c15.832-19.434 33.584-35.669 52.493-47.213 33.507-20.492 70.632-26.264 107.147-9.062 30.896 14.56 59.743 21.406 87.706 23.264 2.826.183 5.651.32 8.461.404 64.144 2.017 124.259-21.094 194.853-36.012 2.811-.594 5.628-1.18 8.469-1.736C581.05.411 636.916-4.874 703.352 6.236a144.029 144.029 0 0120.379 4.874c2.929.944 5.752 1.96 8.468 3.046 31.71 12.9 49.005 36.735 56.354 66.6a122.301 122.301 0 011.804 8.46c13.03 71.841-25.13 173.744-58.158 244.48z" fill="#4C75F2"/><g opacity=".1" fill="#4C75F2"><path opacity=".1" d="M124.054 33.575V421.65l-32.236.35a67.047 67.047 0 01-20.31-2.909V80.788h.053c15.833-19.457 33.584-35.692 52.493-47.213z"/><path opacity=".1" d="M790.396 89.225H64.929a262.993 262.993 0 016.58-8.377v-.06H788.59a120.318 120.318 0 011.805 8.437z"/><path opacity=".1" d="M732.199 14.164v325.16h-2.642a1842.976 1842.976 0 01-4.059 8.468c-.594 1.226-1.188 2.429-1.767 3.632V11.087c2.929.945 5.752 1.97 8.468 3.077zM530.69 10.41v406.83l-8.468.091V12.146c2.81-.594 5.627-1.18 8.468-1.736zM327.368 48.157V419.45l-8.461.091V47.754c2.826.182 5.651.289 8.461.403z"/><path opacity=".1" d="M729.557 339.332a1894.32 1894.32 0 01-4.059 8.468H11.05a179.5 179.5 0 01-2.742-8.468h721.249z"/></g><path d="M175.61 202.429h-14.469v43.908h14.469v-43.908zm389.395-2.284h-14.47v46.451h14.47v-46.451z" fill="#3F3D56"/><path d="M657.28 406.374v9.9l-115.693 1.066-1.233.023-43.971.403-1.051.015-13.365.115h-.396l-81.469.753-133.733 1.242h-.114l-34.002.32-.366.007-151.088 1.386v-11.422l35.525-21.322 71.28-.594 1.523-.008.503-.008 1.523-.022 34.223-.282 1.531-.008.487-.007 1.523-.008 10.974-.091.289-.008 27.073-.229h.221l211.249-1.781 5.171-.038h.518l3.944-.039 28.672-.236 1.523-.022 1.409-.016h.731l8.918-.068 1.766-.023 2.369-.015 7.425-.069 11.781-.099 1.523-.015 2.65-.015h.495l56.894-.488 42.768 21.703z" fill="#65617D"/><path opacity=".2" d="M657.28 406.374v9.9l-115.693 1.066-1.233.023-43.971.403-1.051.015-13.365.115h-.396l-81.469.753-133.733 1.242h-.114l-34.002.32-.366.007-151.088 1.386v-11.422l35.525-21.322 71.28-.594 1.523-.008.503-.008 1.523-.022 34.223-.282 1.531-.008.487-.007 1.523-.008 10.974-.091.289-.008 27.073-.229h.221l211.249-1.781 5.171-.038h.518l3.944-.039 28.672-.236 1.523-.022 1.409-.016h.731l8.918-.068 1.766-.023 2.369-.015 7.425-.069 11.781-.099 1.523-.015 2.65-.015h.495l56.894-.488 42.768 21.703z" fill="#1A1921"/><path d="M225.49 368.307v18.649a4.67 4.67 0 01-2.665 4.218 4.557 4.557 0 01-1.904.457l-26.578.564a4.58 4.58 0 01-2.056-.434 4.66 4.66 0 01-2.718-4.242v-19.212h35.921z" fill="#3F3D56"/><path opacity=".1" d="M225.49 368.307v18.649a4.67 4.67 0 01-2.665 4.218 4.557 4.557 0 01-1.904.457l-26.578.564a4.58 4.58 0 01-2.056-.434 4.66 4.66 0 01-2.718-4.242v-19.212h35.921z" fill="#1A1921"/><path d="M227.013 368.307v18.649a4.661 4.661 0 01-2.665 4.218 4.557 4.557 0 01-1.904.457l-26.578.564a4.58 4.58 0 01-2.056-.434 4.66 4.66 0 01-2.718-4.242v-19.212h35.921zm327.46 0h-35.922v23.987h35.922v-23.987z" fill="#3F3D56"/><path opacity=".1" d="M554.473 368.307h-35.922v23.987h35.922v-23.987z" fill="#1A1921"/><path d="M552.949 368.307h-35.921v23.987h35.921v-23.987z" fill="#3F3D56"/><path opacity=".1" d="M175.61 202.422v4.363l-14.469-.373v-3.99h14.469z" fill="#1A1921"/><path d="M270.847 79.5l-17.386 124.886a3.271 3.271 0 01-3.328 2.826l-139.208-3.61-2.643-.068a3.27 3.27 0 01-2.412-1.147 3.269 3.269 0 01-.756-2.562l19.519-130.734a3.27 3.27 0 013.457-2.764l139.711 9.457a3.261 3.261 0 012.337 1.19 3.256 3.256 0 01.709 2.526z" fill="#65617D"/><path d="M133.977 75.51l-14.721 115.238 127.938 4.059 15.733-111.18-128.95-8.117z" fill="#849FF2"/><path d="M444.69 73.728H296.945a4.059 4.059 0 00-4.059 4.06V201.66a4.059 4.059 0 004.059 4.059H444.69a4.059 4.059 0 004.059-4.059V77.787a4.059 4.059 0 00-4.059-4.059z" fill="#65617D"/><path d="M441.887 82.615H300.242v109.907h141.645V82.615z" fill="#4C75F2"/><path opacity=".1" d="M565.005 200.137v2.886l-14.47.297v-3.183h14.47z" fill="#1A1921"/><path d="M630.291 197.7a2.357 2.357 0 01-.61 1.736 2.332 2.332 0 01-.76.552 2.33 2.33 0 01-.915.21l-142.559 2.947a2.347 2.347 0 01-2.383-2.124L470.81 73.637a2.344 2.344 0 012.224-2.566l141.478-7.037 1.523-.076a2.338 2.338 0 012.452 2.133L630.291 197.7z" fill="#65617D"/><path d="M478.951 78.556l129.21-6.35 10.912 115.747-128.189 3.046-11.933-112.443z" fill="#849FF2"/><path opacity=".1" d="M630.291 197.7a2.357 2.357 0 01-.61 1.736 2.343 2.343 0 01-1.675.762L614.512 64.035l1.523-.077a2.34 2.34 0 012.452 2.133L630.291 197.7zM128.113 66.319l-17.188 137.283-2.643-.068a3.27 3.27 0 01-2.412-1.147 3.269 3.269 0 01-.756-2.562l19.519-130.734a3.273 3.273 0 013.48-2.772zm47.497 167.012h-14.469v13.006h14.469v-13.006zm51.403 134.968v3.785l-35.921.959v-4.744h35.921z" fill="#1A1921"/><path d="M290.411 237.862v128.084a3.044 3.044 0 01-2.932 3.008l-145.948 3.884h-.038a3.046 3.046 0 01-3.008-3.008V237.862a3.046 3.046 0 013.008-3.008h145.91a3.048 3.048 0 013.008 3.008z" fill="#65617D"/><path opacity=".1" d="M141.531 234.854v137.984h-.038a3.046 3.046 0 01-3.008-3.008V237.862a3.046 3.046 0 013.008-3.008h.038z" fill="#1A1921"/><path d="M148.194 243.032h135.173v112.893l-135.173 3.046V243.032z" fill="#D4DFEC"/><path opacity=".1" d="M565.005 233.331h-14.47v13.265h14.47v-13.265zm-12.056 134.968v4.881l-35.921-.959v-3.922h35.921z" fill="#1A1921"/><path d="M600.355 237.862V369.83a3.046 3.046 0 01-3.046 3.008l-145.979-3.884a3.045 3.045 0 01-2.932-3.008V237.862a3.046 3.046 0 013.008-3.008h145.91a3.047 3.047 0 013.039 3.008z" fill="#65617D"/><path opacity=".1" d="M600.355 237.862V369.83a3.046 3.046 0 01-3.046 3.008V234.854a3.046 3.046 0 013.046 3.008z" fill="#1A1921"/><path d="M590.645 243.032H455.473v112.893l135.172 3.046V243.032z" fill="#D4DFEC"/><path d="M444.621 237.862v128.084a3.047 3.047 0 01-2.932 3.008l-145.948 3.884a3.046 3.046 0 01-3.046-3.008V237.862a3.046 3.046 0 013.008-3.008h145.91a3.046 3.046 0 013.008 3.008z" fill="#65617D"/><path d="M302.405 243.032h135.172v112.893l-135.172 3.046V243.032z" fill="#D4DFEC"/><path opacity=".1" d="M657.28 406.374v9.9l-115.693 1.066-1.233.023-43.971.403-1.051.015-13.365.115h-.396l-81.469.753-133.733 1.242h-.114l-34.002.32-.366.007-151.088 1.386v-11.422l154.218-1.013h.365l31.216-.213h.144l215.575-1.424h.221l.13-.008h.358l3.647-.023h1.112l56.727-.381 3.351-.015.746-.008 108.671-.723z" fill="#1A1921"/><path d="M371.065 246.337c21.588 0 39.089-17.5 39.089-39.087 0-21.588-17.501-39.088-39.089-39.088-21.589 0-39.09 17.5-39.09 39.088 0 21.587 17.501 39.087 39.09 39.087z" fill="#FBBEBE"/><path d="M410.162 287.207s-75.773 9.138-68.538 0c2.62-3.305 3.343-13.098 3.198-24.254a285.192 285.192 0 00-.342-10.394c-.838-16.753-2.856-33.125-2.856-33.125s66.253-31.222 58.638-6.473c-3.046 9.998-2.049 24.04.266 37.222a223.69 223.69 0 002.285 11.194 262.324 262.324 0 007.349 25.83z" fill="#FBBEBE"/><path opacity=".1" d="M410.162 287.207s-75.773 9.138-68.538 0c2.62-3.305 3.343-13.098 3.198-24.254 11.553-4.934 26.25-1.256 26.25-1.256 15.475-3.084 25.397-2.483 31.741-.32a262.324 262.324 0 007.349 25.83z" fill="#1A1921"/><path d="M266.339 420.751v-.639l133.74-1.455 81.484-.761h.229l-.084 1.127.114-1.127h.145v-.13l1.043-10.242.396-3.876.122-1.211.107-1.013 4.706-15.694 4.706-15.672 3.96-13.197 6.047-20.164s-3.427-7.996-5.331-10.28c-1.904-2.285-3.808-17.896-3.808-17.896s-16.251-15.481-23.356-17.263c-2.978-.761-8.857-1.774-15.101-3.046a211.628 211.628 0 01-7.044-1.523 156.532 156.532 0 01-3.808-.921 66.898 66.898 0 01-7.044-2.178 15.758 15.758 0 01-3.427-1.744c-5.597-4.104-19.625-4.569-20.166-4.569a.469.469 0 010-.053v-.069c.02-.319.02-.64 0-.959 0-.305 0-.663-.068-1.066 0-.122 0-.252-.053-.381a10.222 10.222 0 00-.153-.868 3.741 3.741 0 00-.091-.404 13.135 13.135 0 00-.952-2.657c-.053-.122-.122-.252-.183-.374a13.877 13.877 0 00-1.614-2.398 14.92 14.92 0 00-2.072-2.011c-.205-.16-.418-.327-.639-.479a3.403 3.403 0 00-.389-.274l-.677-.442-.632-.366a23.305 23.305 0 00-1.782-.883c-.198-.091-.412-.175-.625-.259a78.179 78.179 0 00-.83-.32h-.046l-.571-.228a28.362 28.362 0 00-1.34-.404l-.708-.183-.762-.175-.761-.16a34.207 34.207 0 00-2.43-.396l-.868-.106-.891-.092-.921-.076-1.31-.076-1.523-.053a94.934 94.934 0 00-19.983 2.124 55.028 55.028 0 00-13.905-1.279h-.663l-.761.046h-.488l-.982.091c-.328 0-.663.069-.99.114-.328.046-.67.084-.998.137l-.502.084c-.495.084-.998.175-1.524.282-.167.03-.335.068-.502.114-.663.145-1.325.32-1.98.518-.328.091-.655.198-.983.312a5.377 5.377 0 00-.487.168l-.487.175-.48.19-.571.229c-.29.122-.571.251-.853.388-.16.069-.32.145-.472.229-.153.083-.312.152-.457.236a21.119 21.119 0 00-4.729 3.335l-.389.373-.38.388a9.51 9.51 0 00-.374.404 18.359 18.359 0 00-1.386 1.713c-.121.16-.236.32-.35.488a20.304 20.304 0 00-1.31 2.223c-.099.183-.19.374-.282.556a24.952 24.952 0 00-1.523 3.998 33.99 33.99 0 00-.388 1.523s-16.122 7.113-29.494 12.26c-3.557 1.371-6.907 2.612-9.71 3.549-.815.274-1.576.525-2.284.761a20.313 20.313 0 01-4.76 1.097c-.766.012-1.53.084-2.284.213-6.146.998-16.678 5.331-17.828 9.679a2.817 2.817 0 00-.076 1.066v.084c.761 5.33-4.569 4.569-4.569 4.569s-1.904 14.087-4.57 17.895c-1.926 2.741-3.244 8.856-3.411 13.471a14.919 14.919 0 00.335 4.287v.107c.305 1.02-.427 3.807-1.668 7.379-1.348 3.921-3.313 8.795-5.201 13.394-2.848 6.945-5.529 13.25-5.696 14.636-.069.617-.267 1.721-.541 3.145-1.112 5.803-3.579 16.852-4.798 21.322-.906 3.336-2.223 7.905-3.13 11.042 0 .091-.053.183-.076.267l34.14-.335v.639h.106-.045z" fill="#4C75F2"/><path opacity=".1" d="M278.797 330.993s43.408 22.464 59.019 19.799l-59.019-19.799zm88.338-9.138s42.265 13.707 56.354 15.611c14.088 1.904-56.354-15.611-56.354-15.611zm46.88-44.106c-22.084 4.067-63.664 3.191-81.636 2.574 6.587-23.606 38.709-15.58 38.709-15.58 39.759-7.935 42.805 8.529 42.927 13.006z" fill="#1A1921"/><path d="M414.015 276.226c-22.084 4.067-63.664 3.191-81.636 2.574 6.587-23.606 38.709-15.58 38.709-15.58 39.759-7.935 42.805 8.529 42.927 13.006z" fill="#4C75F2"/><path d="M531.246 380.3s26.014-3.998 26.524 7.425c.51 11.422-13.266 19.403-13.266 19.403L531.246 380.3z" fill="#FBBEBE"/><path opacity=".1" d="M400.528 250.183a35.8 35.8 0 01-3.426 1.325c-8.21 2.833-16.488 5.688-25.131 6.724-8.643 1.036-17.713.122-25.253-4.188a21.935 21.935 0 01-2.284-1.485c-.838-16.753-2.856-33.125-2.856-33.125s66.254-31.222 58.638-6.473c-3.031 9.998-2.003 24.04.312 37.222z" fill="#1A1921"/><path d="M360.342 146.155a7.219 7.219 0 01-6.336-1.333l1.584 2.201a6.462 6.462 0 01-5.163-1.714c-.143 1.97-.062 3.95.244 5.902a11.054 11.054 0 01-7.28-2.285 3.367 3.367 0 002.01 3.282 10.922 10.922 0 00-11.88 8.156l3.975.366a14.066 14.066 0 00-7.95 4.85c-1.218 1.523-2.148 3.473-1.614 5.331.533 1.858 3.107 3.046 4.508 1.721a21.285 21.285 0 00-4.646 17.354c.362 1.303.481 2.661.351 4.006-.252 1.256-1.044 2.345-1.44 3.571-.761 2.224-.038 4.638.64 6.854l3.572 11.742c1.294 4.242 2.581 8.491 4.272 12.595a62.461 62.461 0 013.046 8.004c.96 3.685.998 7.721 3.046 10.942a15.175 15.175 0 005.468 4.821c7.532 4.31 16.632 5.224 25.252 4.188 8.621-1.036 16.891-3.891 25.093-6.724a23.606 23.606 0 005.209-2.285c5.673-3.716 6.937-11.315 7.996-18.009 1.18-7.463 2.757-14.91 5.552-21.931 1.66-4.181 3.807-8.422 3.442-12.9-.465-5.947-5.171-10.768-6.336-16.616a14.473 14.473 0 01.053-5.917c.361-1.16.564-2.364.602-3.579-.13-2.452-2.14-4.34-4.029-5.917a185.624 185.624 0 00-12.687-9.701c-.221-1.523 1.851-2.178 2.787-3.381 1.325-1.698-.045-4.394-2.056-5.186-2.01-.792-4.264-.274-6.359.251a5.02 5.02 0 00-8.795-3.891 7.773 7.773 0 00-6.413-4.63c-5.049-.396-5.148 3.465-8.376 5.59-3.229 2.124-5.895-.678-8.377-2.719a7.066 7.066 0 001.035 6.991z" fill="#3F3D56"/><path d="M550.535 403.145s-.677 1.615-1.926 3.952a52.578 52.578 0 01-6.854 10.029l-.206.221h-1.233l-43.971.404h-1.051l-.13-.152-8.529-10.121-3.214-3.815-.129-.16-.274-.32-.153-.182-.198-.236-6.252-7.417 2.285-9.519 3.891-16.037.099-.389.762-3.046.541-2.284 1.812-7.448 6.214-25.624 11.042 5.711 11.644 20.561 6.252 11.041h3.427c.648 0 2.133 1.249 3.625 2.688a59.062 59.062 0 011.523 1.523 99.833 99.833 0 012.43 2.605s5.551.122 7.044 4.493c.077.211.14.427.19.647a30.7 30.7 0 001.927 4.995c.982 2.14 2.216 4.569 3.465 6.998a383.821 383.821 0 005.551 10.235l.107.19.289.457z" fill="#4C75F2"/><path opacity=".1" d="M485.12 368.764l-.077 1.089v.076l-.129 1.751-1.013 14.096-1.226 16.981-.35 4.782-.762 10.235v.129l-81.484.762-133.718 1.446v.64h-.106v-.853l.343-10.935.654-21.367.564-18.117.053-1.804a8.03 8.03 0 012.682-5.743 8.022 8.022 0 016.015-2.002c3.594.305 8.263.678 13.845 1.074l2.284.167c32.236 2.239 91.811 5.133 151.926 1.523 1.264-.068 2.536-.144 3.808-.236a713.727 713.727 0 0027.857-2.284 8.027 8.027 0 016.413 2.214 8.029 8.029 0 012.421 6.338v.038z" fill="#1A1921"/><path d="M266.339 420.751v-.64l133.74-1.454 81.484-.761h.229v-.13l.761-10.234.328-4.569 1.249-17.218.982-13.631v-.335a8.115 8.115 0 00-.084-1.881.242.242 0 000-.076 7.903 7.903 0 00-1.523-3.533 8.02 8.02 0 00-7.174-3.046 713.676 713.676 0 01-27.856 2.284c-1.272.092-2.544.168-3.808.236-60.116 3.572-119.69.678-151.926-1.523l-2.285-.167a907.354 907.354 0 01-13.844-1.074 8.026 8.026 0 00-8.697 7.745l-.518 16.874-.708 21.376-.335 10.935v.853l-.015-.031z" fill="#3F3D56"/><path opacity=".1" d="M485.348 374.102l-.937 11.673-1.393 17.401-.35 4.356-.762 9.754-.046.488v.129l-.114 1.127.084-1.127h-.221l-81.484.762-133.763 1.446v-.213l.373-10.935.761-21.368.488-14.201a4.846 4.846 0 012.33-3.998 4.759 4.759 0 012.879-.686c1.599.13 3.564.282 5.856.45 3.724.274 8.316.594 13.662.929 9.9.624 22.32 1.294 36.553 1.842 39.6 1.523 93.06 2.034 143.839-2.414 2.284-.198 4.645-.418 6.952-.639a4.772 4.772 0 012.651.502c.231.116.45.253.655.412a4.68 4.68 0 011.523 1.873c.077.149.141.304.19.464a4.78 4.78 0 01.274 1.973zm-258.335 10.425v2.429a4.661 4.661 0 01-.722 2.495 4.661 4.661 0 01-1.943 1.724l-30.538.586a4.66 4.66 0 01-2.718-4.242v-2.284l35.921-.708z" fill="#1A1921"/><path d="M227.394 392.606l-39.79.762v-6.603l39.79-.761v6.602z" fill="#3F3D56"/><path opacity=".1" d="M227.394 392.606l-39.79.762v-6.603l39.79-.761v6.602z" fill="#1A1921"/><path d="M228.917 392.606l-39.79.762v-6.603l39.79-.761v6.602z" fill="#3F3D56"/><path opacity=".1" d="M360.655 143.657a7.428 7.428 0 01-1.44-3.305 7.24 7.24 0 00.32 3.503 6.86 6.86 0 001.12-.198zm-9.672 5.056a27.14 27.14 0 01-.282-2.817v2.825l.282-.008zm62.065 25.411c.042-.678.134-1.352.274-2.018.361-1.158.565-2.359.61-3.571a4.682 4.682 0 00-.122-.807c-.13.7-.335 1.401-.488 2.094a14.593 14.593 0 00-.274 4.302zm-15.84-23.53l.83.602a15.01 15.01 0 001.958-1.691 2.79 2.79 0 00.289-2.772 2.307 2.307 0 01-.289.488c-.937 1.203-3.009 1.865-2.788 3.373zm-62.575 7.326a9.368 9.368 0 00-.662 1.736 13.813 13.813 0 013.807-1.439l-3.145-.297zm10.502-8.285a11.298 11.298 0 01-1.432-.937c-.019.301.004.604.068.898a9.136 9.136 0 011.364.039zm74.455 44.867c-.312 3.693-2.034 7.25-3.427 10.753-2.795 7.021-4.371 14.468-5.552 21.938-1.058 6.694-2.284 14.294-7.996 18.002a22.882 22.882 0 01-5.201 2.285c-8.209 2.84-16.487 5.688-25.131 6.724-8.643 1.035-17.713.129-25.252-4.181a15.244 15.244 0 01-5.468-4.82c-2.033-3.221-2.071-7.257-3.046-10.943a62.613 62.613 0 00-3.046-8.011c-1.683-4.097-2.978-8.376-4.265-12.588-1.193-3.914-2.383-7.83-3.571-11.749a21.91 21.91 0 01-.869-3.618c-.297 1.95.282 3.991.869 5.902 1.188 3.924 2.378 7.841 3.571 11.75 1.287 4.241 2.582 8.491 4.265 12.588a62.6 62.6 0 013.046 8.01c.959 3.686.998 7.722 3.046 10.943a15.237 15.237 0 005.468 4.821c7.539 4.31 16.632 5.216 25.252 4.18 8.621-1.035 16.891-3.884 25.131-6.724a22.835 22.835 0 005.201-2.284c5.674-3.709 6.938-11.309 7.996-18.002 1.181-7.471 2.757-14.918 5.552-21.939 1.66-4.173 3.808-8.415 3.442-12.9 0-.045-.015-.091-.015-.137zm-91.148-2.947v-.084a10.668 10.668 0 00-.351-3.998 20.433 20.433 0 01-.297-2.528 20.863 20.863 0 00.297 4.813c.122.594.259 1.196.351 1.797zm2.322-18.626a21.158 21.158 0 011.988-2.795c-1.394 1.333-3.968.145-4.508-1.706-.2.749-.2 1.536 0 2.285a3.347 3.347 0 002.52 2.216zm190.201 195.378s2.414 8.757 0 16.372 0-16.372 0-16.372zm10.281 8.932s1.013 11.118-1.272 13.09c-2.285 1.973 1.272-13.09 1.272-13.09z" fill="#1A1921"/><path d="M151.538 261.088l77.379-.762m-77.379 10.257l77.379-.753m-77.379 10.257l77.379-.761" stroke="#4C75F2" stroke-width="2" stroke-miterlimit="10"/></g><defs><clipPath id="clip0"><path fill="#fff" d="M0 0h793v422H0z"/></clipPath></defs></svg>