<svg width="1920" height="729" viewBox="0 0 1920 729" fill="none" xmlns="http://www.w3.org/2000/svg">
<path d="M0 364.5C104 -120.167 208 -120.167 312 364.5C416 849.167 520 849.167 624 364.5C728 -120.167 832 -120.167 936 364.5C1040 849.167 1144 849.167 1248 364.5C1352 -120.167 1456 -120.167 1560 364.5C1664 849.167 1768 849.167 1872 364.5C1976 -120.167 2080 -120.167 2184 364.5C2288 849.167 2392 849.167 2496 364.5C2600 -120.167 2704 -120.167 2808 364.5C2912 849.167 3016 849.167 3120 364.5" stroke="#4C75F2" stroke-width="2"/>
</svg>

