<svg width="31" height="30" viewBox="0 0 31 30" fill="none" xmlns="http://www.w3.org/2000/svg">
<path d="M15.8195 0C12.2578 0.000147697 8.81226 1.26766 6.09953 3.57575C3.3868 5.88383 1.58387 9.08187 1.01332 12.5976C0.442772 16.1134 1.14185 19.7175 2.98545 22.765C4.82906 25.8125 7.6969 28.1045 11.0758 29.231C11.8258 29.3623 12.1071 28.9123 12.1071 28.5185C12.1071 28.1623 12.0883 26.981 12.0883 25.7248C8.31957 26.4185 7.34457 24.8061 7.04458 23.9624C6.71169 23.1418 6.184 22.4146 5.50709 21.8436C4.98209 21.5623 4.2321 20.8686 5.48832 20.8499C5.968 20.9019 6.42806 21.0688 6.82952 21.3365C7.23099 21.6041 7.56202 21.9646 7.79457 22.3873C7.99973 22.7559 8.27559 23.0803 8.60635 23.3421C8.93711 23.6038 9.31627 23.7977 9.72211 23.9127C10.1279 24.0276 10.5525 24.0614 10.9714 24.012C11.3903 23.9626 11.7953 23.831 12.1633 23.6248C12.2282 22.8623 12.568 22.1493 13.1195 21.6186C9.78206 21.2436 6.29458 19.9498 6.29458 14.2124C6.2735 12.7217 6.82361 11.2793 7.83207 10.1812C7.3735 8.88556 7.42715 7.46367 7.98207 6.20625C7.98207 6.20625 9.23827 5.81249 12.107 7.74374C14.5615 7.06871 17.1526 7.06871 19.607 7.74374C22.4757 5.79375 23.732 6.20625 23.732 6.20625C24.287 7.46365 24.3406 8.88557 23.882 10.1812C24.8935 11.2775 25.444 12.7211 25.4194 14.2124C25.4194 19.9686 21.9132 21.2436 18.5757 21.6186C18.9337 21.9815 19.2094 22.4171 19.3841 22.8959C19.5588 23.3747 19.6284 23.8855 19.5882 24.3936C19.5882 26.3999 19.5695 28.0123 19.5695 28.5186C19.5695 28.9124 19.8507 29.3811 20.6007 29.2311C23.9737 28.0954 26.8333 25.798 28.669 22.7489C30.5048 19.6999 31.1972 16.0976 30.6227 12.5853C30.0482 9.0729 28.2442 5.87902 25.5326 3.57374C22.8211 1.26847 19.3786 0.00185235 15.8195 0Z" fill="white"/>
</svg>
