<svg width="115" height="35" viewBox="0 0 115 35" fill="none" xmlns="http://www.w3.org/2000/svg">
<path d="M2.4939 34V22.228H6.2559C6.8679 22.228 7.4259 22.282 7.9299 22.39C8.4459 22.486 8.8899 22.648 9.2619 22.876C9.6459 23.092 9.9399 23.386 10.1439 23.758C10.3599 24.13 10.4679 24.586 10.4679 25.126C10.4679 25.69 10.3239 26.212 10.0359 26.692C9.7479 27.172 9.3459 27.502 8.8299 27.682V27.754C9.4779 27.898 10.0119 28.204 10.4319 28.672C10.8639 29.128 11.0799 29.752 11.0799 30.544C11.0799 31.132 10.9659 31.642 10.7379 32.074C10.5099 32.506 10.1919 32.866 9.7839 33.154C9.3879 33.442 8.9139 33.658 8.3619 33.802C7.8099 33.934 7.2099 34 6.5619 34H2.4939ZM4.5819 27.088H6.0759C6.9039 27.088 7.4979 26.938 7.8579 26.638C8.2299 26.338 8.4159 25.936 8.4159 25.432C8.4159 24.856 8.2239 24.448 7.8399 24.208C7.4559 23.968 6.8799 23.848 6.1119 23.848H4.5819V27.088ZM4.5819 32.38H6.3459C7.2099 32.38 7.8759 32.224 8.3439 31.912C8.8119 31.588 9.0459 31.096 9.0459 30.436C9.0459 29.812 8.8179 29.362 8.3619 29.086C7.9059 28.798 7.2339 28.654 6.3459 28.654H4.5819V32.38Z" fill="white"/>
<path d="M17.6461 27.736L17.2321 29.176H20.2381L19.8241 27.736C19.6321 27.112 19.4461 26.47 19.2661 25.81C19.0981 25.15 18.9301 24.496 18.7621 23.848H18.6901C18.5221 24.508 18.3541 25.168 18.1861 25.828C18.0181 26.476 17.8381 27.112 17.6461 27.736ZM13.7041 34L17.5381 22.228H19.9861L23.8201 34H21.6241L20.7061 30.814H16.7461L15.8281 34H13.7041Z" fill="white"/>
<path d="M27.2712 34V22.228H29.3592V32.236H34.2552V34H27.2712Z" fill="white"/>
<path d="M38.3064 34V22.228H40.6644L42.7524 27.988C42.8844 28.36 43.0104 28.744 43.1304 29.14C43.2504 29.524 43.3764 29.908 43.5084 30.292H43.5804C43.7124 29.908 43.8324 29.524 43.9404 29.14C44.0604 28.744 44.1864 28.36 44.3184 27.988L46.3524 22.228H48.7284V34H46.8024V28.618C46.8024 28.342 46.8084 28.042 46.8204 27.718C46.8444 27.394 46.8684 27.07 46.8924 26.746C46.9164 26.41 46.9464 26.086 46.9824 25.774C47.0184 25.45 47.0484 25.15 47.0724 24.874H47.0004L46.0464 27.61L44.1204 32.902H42.8784L40.9344 27.61L39.9984 24.874H39.9264C39.9504 25.15 39.9744 25.45 39.9984 25.774C40.0344 26.086 40.0644 26.41 40.0884 26.746C40.1244 27.07 40.1484 27.394 40.1604 27.718C40.1844 28.042 40.1964 28.342 40.1964 28.618V34H38.3064Z" fill="white"/>
<path d="M56.1305 27.736L55.7165 29.176H58.7225L58.3085 27.736C58.1165 27.112 57.9305 26.47 57.7505 25.81C57.5825 25.15 57.4145 24.496 57.2465 23.848H57.1745C57.0065 24.508 56.8385 25.168 56.6705 25.828C56.5025 26.476 56.3225 27.112 56.1305 27.736ZM52.1885 34L56.0225 22.228H58.4705L62.3045 34H60.1085L59.1905 30.814H55.2305L54.3125 34H52.1885Z" fill="white"/>
<path d="M65.7556 34V22.228H67.8436V27.574H67.8976L72.0916 22.228H74.4136L70.7956 26.818L75.0256 34H72.7216L69.5356 28.456L67.8436 30.562V34H65.7556Z" fill="white"/>
<path d="M82.6246 34.216C81.9406 34.216 81.3226 34.12 80.7706 33.928C80.2306 33.724 79.7626 33.406 79.3666 32.974C78.9826 32.542 78.6826 31.99 78.4666 31.318C78.2626 30.634 78.1606 29.806 78.1606 28.834V22.228H80.2486V28.996C80.2486 29.632 80.3026 30.172 80.4106 30.616C80.5306 31.048 80.6926 31.396 80.8966 31.66C81.1126 31.924 81.3646 32.116 81.6526 32.236C81.9406 32.344 82.2646 32.398 82.6246 32.398C82.9846 32.398 83.3146 32.344 83.6146 32.236C83.9146 32.116 84.1726 31.924 84.3886 31.66C84.6046 31.396 84.7726 31.048 84.8926 30.616C85.0126 30.172 85.0726 29.632 85.0726 28.996V22.228H87.0706V28.834C87.0706 29.806 86.9686 30.634 86.7646 31.318C86.5606 31.99 86.2606 32.542 85.8646 32.974C85.4806 33.406 85.0126 33.724 84.4606 33.928C83.9206 34.12 83.3086 34.216 82.6246 34.216Z" fill="white"/>
<path d="M92.0095 34V22.228H94.1515L97.8235 28.852L99.0295 31.354H99.1015C99.0535 30.742 98.9935 30.088 98.9215 29.392C98.8615 28.684 98.8315 28 98.8315 27.34V22.228H100.83V34H98.6875L95.0155 27.376L93.8095 24.874H93.7375C93.7855 25.498 93.8395 26.152 93.8995 26.836C93.9715 27.52 94.0075 28.192 94.0075 28.852V34H92.0095Z" fill="white"/>
<path d="M105.822 34V22.228H108.972C110.772 22.228 112.176 22.714 113.184 23.686C114.192 24.658 114.696 26.116 114.696 28.06C114.696 29.032 114.564 29.89 114.3 30.634C114.048 31.378 113.676 32.002 113.184 32.506C112.704 32.998 112.116 33.37 111.42 33.622C110.736 33.874 109.956 34 109.08 34H105.822ZM107.91 32.308H108.828C110.028 32.308 110.946 31.966 111.582 31.282C112.23 30.586 112.554 29.512 112.554 28.06C112.554 26.62 112.23 25.57 111.582 24.91C110.934 24.25 110.016 23.92 108.828 23.92H107.91V32.308Z" fill="white"/>
<path d="M6.2079 7.648L5.6559 9.568H9.66391L9.11191 7.648C8.85591 6.816 8.6079 5.96 8.3679 5.08C8.1439 4.2 7.9199 3.328 7.6959 2.464H7.5999C7.3759 3.344 7.1519 4.224 6.9279 5.104C6.7039 5.968 6.4639 6.816 6.2079 7.648ZM0.951904 16L6.0639 0.304001H9.3279L14.4399 16H11.5119L10.2879 11.752H5.0079L3.7839 16H0.951904Z" fill="#4C75F2"/>
<path d="M18.3747 16V0.304001H21.2307L26.1267 9.136L27.7347 12.472H27.8307C27.7667 11.656 27.6867 10.784 27.5907 9.856C27.5107 8.912 27.4707 8 27.4707 7.12V0.304001H30.1347V16H27.2787L22.3827 7.168L20.7747 3.832H20.6787C20.7427 4.664 20.8147 5.536 20.8947 6.448C20.9907 7.36 21.0387 8.256 21.0387 9.136V16H18.3747Z" fill="#4C75F2"/>
<path d="M36.1247 16V0.304001H40.3247C42.7247 0.304001 44.5967 0.952001 45.9407 2.248C47.2847 3.544 47.9567 5.488 47.9567 8.08C47.9567 9.376 47.7807 10.52 47.4287 11.512C47.0927 12.504 46.5967 13.336 45.9407 14.008C45.3007 14.664 44.5167 15.16 43.5887 15.496C42.6767 15.832 41.6367 16 40.4687 16H36.1247ZM38.9087 13.744H40.1327C41.7327 13.744 42.9567 13.288 43.8047 12.376C44.6687 11.448 45.1007 10.016 45.1007 8.08C45.1007 6.16 44.6687 4.76 43.8047 3.88C42.9407 3 41.7167 2.56 40.1327 2.56H38.9087V13.744Z" fill="#4C75F2"/>
<path d="M53.1247 16V0.304001H58.4287C59.2447 0.304001 60.0047 0.384001 60.7087 0.544001C61.4127 0.704001 62.0207 0.968002 62.5327 1.336C63.0447 1.688 63.4447 2.16 63.7327 2.752C64.0367 3.344 64.1887 4.08 64.1887 4.96C64.1887 6.16 63.9007 7.128 63.3247 7.864C62.7647 8.6 62.0127 9.128 61.0687 9.448L64.8127 16H61.6927L58.3087 9.856H55.9087V16H53.1247ZM55.9087 7.648H58.1407C59.2127 7.648 60.0287 7.424 60.5887 6.976C61.1647 6.528 61.4527 5.856 61.4527 4.96C61.4527 4.048 61.1647 3.416 60.5887 3.064C60.0287 2.712 59.2127 2.536 58.1407 2.536H55.9087V7.648Z" fill="#4C75F2"/>
<path d="M69.3278 16V0.304001H78.7838V2.656H72.1118V6.664H77.7518V9.016H72.1118V13.648H79.0238V16H69.3278Z" fill="#4C75F2"/>
<path d="M85.8019 16L82.6819 0.304001H85.5379L86.9059 8.224C87.0339 9.072 87.1619 9.912 87.2899 10.744C87.4179 11.576 87.5459 12.408 87.6739 13.24H87.7699C87.9459 12.408 88.1139 11.576 88.2739 10.744C88.4499 9.896 88.6259 9.056 88.8019 8.224L90.7219 0.304001H93.1459L95.0659 8.224C95.2419 9.04 95.4179 9.872 95.5939 10.72C95.7699 11.552 95.9459 12.392 96.1219 13.24H96.2179C96.3459 12.392 96.4659 11.552 96.5779 10.72C96.7059 9.888 96.8339 9.056 96.9619 8.224L98.3299 0.304001H100.994L97.9939 16H94.5379L92.5939 7.744C92.4659 7.136 92.3379 6.536 92.2099 5.944C92.0979 5.336 91.9939 4.728 91.8979 4.12H91.8019C91.6899 4.728 91.5699 5.336 91.4419 5.944C91.3299 6.536 91.2099 7.136 91.0819 7.744L89.1859 16H85.8019Z" fill="#4C75F2"/>
</svg>
