<svg width="793" height="422" viewBox="0 0 793 422" fill="none" xmlns="http://www.w3.org/2000/svg">
<g clip-path="url(#clip0)">
<path opacity="0.1" d="M732.199 333.696C731.316 335.6 730.435 337.478 729.557 339.331C728.186 342.21 726.833 345.032 725.498 347.799C724.904 349.025 724.31 350.228 723.731 351.431C717.182 364.811 711.067 376.645 705.873 386.377C701.16 395.195 694.163 402.583 685.613 407.768C677.064 412.953 667.278 415.743 657.279 415.847L541.793 417.103H540.574L530.674 417.21L522.206 417.301L496.238 417.583H495.187L481.967 417.727H481.563L400.079 418.611L327.345 419.372L318.884 419.464L266.339 420.035H266.278L232.199 420.4H231.833L124.077 421.565L91.8408 421.916C84.9616 421.993 78.1115 421.012 71.5307 419.007C60.0788 415.548 49.7869 409.032 41.7624 400.16C27.9177 384.907 17.8274 367.111 11.0497 347.799C10.0699 345.012 9.15604 342.189 8.3082 339.331C-15.1546 260.021 13.4486 157.698 64.9282 89.2243C67.0859 86.3611 69.2791 83.569 71.5079 80.8479L71.5612 80.7869C87.3934 61.3535 105.145 45.1183 124.054 33.574C157.561 13.0821 194.686 7.3099 231.201 24.5122C262.097 39.072 290.944 45.9179 318.907 47.776C321.733 47.9587 324.558 48.0958 327.368 48.1796C391.512 50.1975 451.627 27.086 522.221 12.1683C525.032 11.5743 527.849 10.9879 530.69 10.432C581.05 0.410717 636.916 -4.87408 703.352 6.23619C710.254 7.36371 717.065 8.99255 723.731 11.1098C726.66 12.054 729.483 13.0694 732.199 14.1558C763.909 27.0556 781.204 50.8905 788.553 80.7565C789.248 83.5283 789.85 86.3484 790.357 89.2168C803.387 161.057 765.227 262.96 732.199 333.696Z" fill="#4C75F2"/>
<g opacity="0.1">
<path opacity="0.1" d="M124.054 33.5745V421.65L91.8182 422C84.939 422.078 78.0888 421.097 71.5081 419.091V80.7875H71.5614C87.3936 61.3312 105.145 45.096 124.054 33.5745Z" fill="#4C75F2"/>
<path opacity="0.1" d="M790.396 89.2249H64.9285C67.0861 86.3616 69.2794 83.5694 71.5081 80.8484V80.7874H788.591C789.286 83.5441 789.888 86.3565 790.396 89.2249Z" fill="#4C75F2"/>
<path opacity="0.1" d="M732.199 14.1639V339.324H729.557C728.186 342.203 726.833 345.025 725.498 347.792C724.904 349.018 724.31 350.221 723.731 351.424V11.0874C726.66 12.0317 729.483 13.0572 732.199 14.1639Z" fill="#4C75F2"/>
<path opacity="0.1" d="M530.69 10.4097V417.241L522.222 417.332V12.1459C525.032 11.5519 527.849 10.9656 530.69 10.4097Z" fill="#4C75F2"/>
<path opacity="0.1" d="M327.368 48.1572V419.449L318.907 419.54V47.7536C321.733 47.9364 324.558 48.043 327.368 48.1572Z" fill="#4C75F2"/>
<path opacity="0.1" d="M729.557 339.332C728.186 342.21 726.833 345.033 725.498 347.8H11.0499C10.07 345.012 9.15619 342.19 8.30835 339.332H729.557Z" fill="#4C75F2"/>
</g>
<path d="M175.61 202.429H161.141V246.337H175.61V202.429Z" fill="#3F3D56"/>
<path d="M565.005 200.145H550.535V246.596H565.005V200.145Z" fill="#3F3D56"/>
<path d="M657.28 406.374V416.274L541.587 417.34L540.354 417.363L496.383 417.766L495.332 417.781L481.967 417.896H481.571L400.102 418.649L266.369 419.891H266.255L232.253 420.211L231.887 420.218L80.7988 421.604V410.182L116.324 388.86L187.604 388.266L189.127 388.258L189.63 388.25L191.153 388.228L225.376 387.946L226.907 387.938L227.394 387.931L228.917 387.923L239.891 387.832L240.18 387.824L267.253 387.595H267.474L478.723 385.814L483.894 385.776H484.412L488.356 385.737L517.028 385.501L518.551 385.479L519.96 385.463H520.691L529.609 385.395L531.375 385.372L533.744 385.357L541.169 385.288L552.95 385.189L554.473 385.174L557.123 385.159H557.618L614.512 384.671L657.28 406.374Z" fill="#65617D"/>
<path opacity="0.2" d="M657.28 406.374V416.274L541.587 417.34L540.354 417.363L496.383 417.766L495.332 417.781L481.967 417.896H481.571L400.102 418.649L266.369 419.891H266.255L232.253 420.211L231.887 420.218L80.7988 421.604V410.182L116.324 388.86L187.604 388.266L189.127 388.258L189.63 388.25L191.153 388.228L225.376 387.946L226.907 387.938L227.394 387.931L228.917 387.923L239.891 387.832L240.18 387.824L267.253 387.595H267.474L478.723 385.814L483.894 385.776H484.412L488.356 385.737L517.028 385.501L518.551 385.479L519.96 385.463H520.691L529.609 385.395L531.375 385.372L533.744 385.357L541.169 385.288L552.95 385.189L554.473 385.174L557.123 385.159H557.618L614.512 384.671L657.28 406.374Z" fill="#1A1921"/>
<path d="M225.49 368.307V386.956C225.491 387.839 225.24 388.704 224.769 389.451C224.297 390.198 223.623 390.796 222.825 391.174C222.231 391.463 221.581 391.618 220.921 391.631L194.343 392.195C193.634 392.212 192.93 392.063 192.287 391.761C191.475 391.389 190.787 390.791 190.305 390.039C189.823 389.287 189.568 388.412 189.569 387.519V368.307H225.49Z" fill="#3F3D56"/>
<path opacity="0.1" d="M225.49 368.307V386.956C225.491 387.839 225.24 388.704 224.769 389.451C224.297 390.198 223.623 390.796 222.825 391.174C222.231 391.463 221.581 391.618 220.921 391.631L194.343 392.195C193.634 392.212 192.93 392.063 192.287 391.761C191.475 391.389 190.787 390.791 190.305 390.039C189.823 389.287 189.568 388.412 189.569 387.519V368.307H225.49Z" fill="#1A1921"/>
<path d="M227.013 368.307V386.956C227.014 387.839 226.763 388.704 226.291 389.451C225.82 390.198 225.146 390.796 224.348 391.174C223.754 391.463 223.104 391.618 222.444 391.631L195.866 392.195C195.157 392.212 194.453 392.063 193.81 391.761C192.998 391.389 192.31 390.791 191.828 390.039C191.346 389.287 191.091 388.412 191.092 387.519V368.307H227.013Z" fill="#3F3D56"/>
<path d="M554.473 368.307H518.551V392.294H554.473V368.307Z" fill="#3F3D56"/>
<path opacity="0.1" d="M554.473 368.307H518.551V392.294H554.473V368.307Z" fill="#1A1921"/>
<path d="M552.949 368.307H517.028V392.294H552.949V368.307Z" fill="#3F3D56"/>
<path opacity="0.1" d="M175.61 202.422V206.785L161.141 206.412V202.422H175.61Z" fill="#1A1921"/>
<path d="M270.847 79.5005L253.461 204.386C253.351 205.184 252.951 205.913 252.337 206.434C251.723 206.956 250.938 207.232 250.133 207.212L110.925 203.602L108.282 203.534C107.822 203.523 107.37 203.415 106.954 203.217C106.538 203.02 106.169 202.737 105.87 202.387C105.571 202.037 105.349 201.628 105.219 201.186C105.089 200.745 105.053 200.281 105.114 199.825L124.633 69.0908C124.758 68.281 125.183 67.5478 125.823 67.0361C126.464 66.5243 127.272 66.2711 128.09 66.3266L267.801 75.7844C268.252 75.8105 268.692 75.9298 269.094 76.1347C269.497 76.3396 269.852 76.6256 270.138 76.9748C270.425 77.324 270.635 77.7287 270.757 78.1634C270.879 78.5981 270.91 79.0534 270.847 79.5005Z" fill="#65617D"/>
<path d="M133.977 75.5103L119.256 190.748L247.194 194.807L262.927 83.6278L133.977 75.5103Z" fill="#849FF2"/>
<path d="M444.69 73.7284H296.945C294.703 73.7284 292.886 75.5455 292.886 77.7872V201.66C292.886 203.902 294.703 205.719 296.945 205.719H444.69C446.932 205.719 448.749 203.902 448.749 201.66V77.7872C448.749 75.5455 446.932 73.7284 444.69 73.7284Z" fill="#65617D"/>
<path d="M441.887 82.6151H300.242V192.522H441.887V82.6151Z" fill="#4C75F2"/>
<path opacity="0.1" d="M565.005 200.137V203.023L550.535 203.32V200.137H565.005Z" fill="#1A1921"/>
<path d="M630.291 197.7C630.311 198.016 630.268 198.332 630.163 198.631C630.059 198.929 629.894 199.203 629.681 199.436C629.468 199.67 629.209 199.857 628.921 199.988C628.634 200.119 628.322 200.191 628.006 200.198L485.447 203.145C484.855 203.157 484.28 202.945 483.838 202.551C483.396 202.157 483.119 201.61 483.064 201.021L470.81 73.637C470.78 73.3209 470.814 73.0021 470.911 72.6996C471.008 72.3972 471.165 72.1176 471.373 71.8776C471.581 71.6377 471.835 71.4424 472.121 71.3037C472.406 71.165 472.717 71.0858 473.034 71.0707L614.512 64.0345L616.035 63.9583C616.64 63.9264 617.235 64.131 617.692 64.5288C618.15 64.9266 618.435 65.4866 618.487 66.0905L630.291 197.7Z" fill="#65617D"/>
<path d="M478.951 78.5563L608.161 72.2054L619.073 187.953L490.884 190.999L478.951 78.5563Z" fill="#849FF2"/>
<path opacity="0.1" d="M630.291 197.7C630.311 198.016 630.268 198.332 630.163 198.631C630.058 198.929 629.894 199.203 629.681 199.436C629.467 199.67 629.209 199.857 628.921 199.988C628.633 200.119 628.322 200.191 628.006 200.198L614.512 64.0345L616.035 63.9583C616.64 63.9264 617.234 64.131 617.692 64.5288C618.149 64.9266 618.434 65.4866 618.487 66.0905L630.291 197.7Z" fill="#1A1921"/>
<path opacity="0.1" d="M128.113 66.319L110.925 203.602L108.282 203.534C107.822 203.523 107.37 203.415 106.954 203.217C106.538 203.02 106.169 202.737 105.87 202.387C105.571 202.037 105.349 201.628 105.219 201.186C105.089 200.745 105.053 200.281 105.114 199.825L124.633 69.0908C124.757 68.2754 125.184 67.537 125.83 67.0231C126.475 66.5092 127.29 66.2577 128.113 66.319Z" fill="#1A1921"/>
<path opacity="0.1" d="M175.61 233.331H161.141V246.337H175.61V233.331Z" fill="#1A1921"/>
<path opacity="0.1" d="M227.013 368.299V372.084L191.092 373.043V368.299H227.013Z" fill="#1A1921"/>
<path d="M290.411 237.862V365.946C290.402 366.728 290.092 367.476 289.546 368.036C289 368.596 288.26 368.925 287.479 368.954L141.531 372.838H141.493C140.698 372.828 139.939 372.508 139.377 371.946C138.815 371.384 138.495 370.624 138.485 369.83V237.862C138.495 237.067 138.815 236.308 139.377 235.746C139.939 235.184 140.698 234.864 141.493 234.854H287.403C288.197 234.864 288.957 235.184 289.519 235.746C290.081 236.308 290.401 237.067 290.411 237.862Z" fill="#65617D"/>
<path opacity="0.1" d="M141.531 234.854V372.838H141.493C140.698 372.828 139.939 372.508 139.377 371.946C138.815 371.384 138.495 370.624 138.485 369.83V237.862C138.495 237.067 138.815 236.308 139.377 235.746C139.939 235.184 140.698 234.864 141.493 234.854H141.531Z" fill="#1A1921"/>
<path d="M148.194 243.032H283.367V355.925L148.194 358.971V243.032Z" fill="#D4DFEC"/>
<path opacity="0.1" d="M565.005 233.331H550.535V246.596H565.005V233.331Z" fill="#1A1921"/>
<path opacity="0.1" d="M552.949 368.299V373.18L517.028 372.221V368.299H552.949Z" fill="#1A1921"/>
<path d="M600.355 237.862V369.83C600.345 370.631 600.02 371.396 599.449 371.959C598.879 372.522 598.11 372.838 597.309 372.838L451.33 368.954C450.549 368.925 449.809 368.596 449.263 368.036C448.717 367.476 448.408 366.728 448.398 365.946V237.862C448.408 237.067 448.728 236.308 449.29 235.746C449.852 235.184 450.612 234.864 451.406 234.854H597.316C598.116 234.856 598.883 235.172 599.452 235.735C600.021 236.298 600.345 237.062 600.355 237.862Z" fill="#65617D"/>
<path opacity="0.1" d="M600.355 237.862V369.83C600.345 370.631 600.02 371.396 599.449 371.959C598.879 372.522 598.11 372.838 597.309 372.838V234.854C598.11 234.854 598.879 235.17 599.449 235.733C600.02 236.296 600.345 237.061 600.355 237.862Z" fill="#1A1921"/>
<path d="M590.645 243.032H455.473V355.925L590.645 358.971V243.032Z" fill="#D4DFEC"/>
<path d="M444.621 237.862V365.946C444.612 366.728 444.302 367.476 443.757 368.036C443.211 368.596 442.471 368.925 441.689 368.954L295.741 372.838C294.94 372.838 294.171 372.522 293.601 371.959C293.031 371.396 292.705 370.631 292.695 369.83V237.862C292.705 237.067 293.025 236.308 293.587 235.746C294.149 235.184 294.909 234.864 295.703 234.854H441.613C442.408 234.864 443.167 235.184 443.729 235.746C444.291 236.308 444.611 237.067 444.621 237.862Z" fill="#65617D"/>
<path d="M302.405 243.032H437.577V355.925L302.405 358.971V243.032Z" fill="#D4DFEC"/>
<path opacity="0.1" d="M657.28 406.374V416.274L541.587 417.34L540.354 417.363L496.383 417.766L495.332 417.781L481.967 417.896H481.571L400.102 418.649L266.369 419.891H266.255L232.253 420.211L231.887 420.218L80.7988 421.604V410.182L235.017 409.169H235.382L266.598 408.956H266.742L482.317 407.532H482.538L482.668 407.524H483.026L486.673 407.501H487.785L544.512 407.12L547.863 407.105L548.609 407.097L657.28 406.374Z" fill="#1A1921"/>
<path d="M371.065 246.337C392.653 246.337 410.154 228.837 410.154 207.25C410.154 185.662 392.653 168.162 371.065 168.162C349.476 168.162 331.975 185.662 331.975 207.25C331.975 228.837 349.476 246.337 371.065 246.337Z" fill="#FBBEBE"/>
<path d="M410.162 287.207C410.162 287.207 334.389 296.345 341.624 287.207C344.244 283.902 344.967 274.109 344.822 262.953C344.777 259.565 344.655 256.054 344.48 252.559C343.642 235.806 341.624 219.434 341.624 219.434C341.624 219.434 407.877 188.212 400.262 212.961C397.216 222.959 398.213 237.001 400.528 250.183C401.206 254.029 401.991 257.798 402.813 261.377C404.82 270.107 407.273 278.728 410.162 287.207Z" fill="#FBBEBE"/>
<path opacity="0.1" d="M410.162 287.207C410.162 287.207 334.389 296.345 341.624 287.207C344.244 283.902 344.967 274.109 344.822 262.953C356.375 258.019 371.072 261.697 371.072 261.697C386.547 258.613 396.469 259.214 402.813 261.377C404.82 270.107 407.273 278.728 410.162 287.207Z" fill="#1A1921"/>
<path d="M266.339 420.751V420.112L400.079 418.657L481.563 417.896H481.792L481.708 419.023L481.822 417.896H481.967V417.766L483.01 407.524L483.406 403.648L483.528 402.437L483.635 401.424L488.341 385.73L493.047 370.058L497.007 356.861L503.054 336.697C503.054 336.697 499.627 328.701 497.723 326.417C495.819 324.132 493.915 308.521 493.915 308.521C493.915 308.521 477.664 293.04 470.559 291.258C467.581 290.497 461.702 289.484 455.458 288.212C453.12 287.74 450.721 287.238 448.414 286.689C447.111 286.392 445.832 286.08 444.606 285.768C442.22 285.172 439.868 284.445 437.562 283.59C436.353 283.151 435.202 282.565 434.135 281.846C428.538 277.742 414.51 277.277 413.969 277.277C413.968 277.259 413.968 277.242 413.969 277.224V277.155C413.989 276.836 413.989 276.515 413.969 276.196C413.969 275.891 413.969 275.533 413.901 275.13C413.901 275.008 413.901 274.878 413.848 274.749C413.81 274.475 413.764 274.185 413.695 273.881C413.672 273.745 413.642 273.61 413.604 273.477C413.383 272.56 413.064 271.669 412.652 270.82C412.599 270.698 412.53 270.568 412.469 270.446C412.096 269.743 411.663 269.073 411.175 268.444C411.076 268.314 410.969 268.177 410.855 268.048C410.231 267.312 409.537 266.639 408.783 266.037C408.578 265.877 408.365 265.71 408.144 265.558C408.021 265.458 407.891 265.366 407.755 265.284L407.078 264.842L406.446 264.476C405.89 264.172 405.303 263.875 404.664 263.593C404.466 263.502 404.252 263.418 404.039 263.334C403.826 263.25 403.491 263.121 403.209 263.014H403.163L402.592 262.786C402.158 262.641 401.716 262.512 401.252 262.382L400.544 262.199L399.782 262.024L399.021 261.864C398.259 261.712 397.444 261.575 396.591 261.468L395.723 261.362L394.832 261.27L393.911 261.194L392.601 261.118L391.078 261.065C384.361 261.064 377.662 261.776 371.095 263.189C366.533 262.174 361.86 261.744 357.19 261.91H356.527L355.766 261.956H355.278L354.296 262.047C353.968 262.047 353.633 262.116 353.306 262.161C352.978 262.207 352.636 262.245 352.308 262.298L351.806 262.382C351.311 262.466 350.808 262.557 350.282 262.664C350.115 262.694 349.947 262.732 349.78 262.778C349.117 262.923 348.455 263.098 347.8 263.296C347.472 263.387 347.145 263.494 346.817 263.608C346.65 263.654 346.49 263.715 346.33 263.776L345.843 263.951L345.363 264.141L344.792 264.37C344.502 264.492 344.221 264.621 343.939 264.758C343.779 264.827 343.619 264.903 343.467 264.987C343.314 265.07 343.155 265.139 343.01 265.223C341.288 266.112 339.697 267.235 338.281 268.558L337.892 268.931L337.512 269.319C337.382 269.449 337.26 269.586 337.138 269.723C336.642 270.266 336.179 270.838 335.752 271.436C335.631 271.596 335.516 271.756 335.402 271.924C334.919 272.636 334.481 273.379 334.092 274.147C333.993 274.33 333.902 274.521 333.81 274.703C333.189 275.99 332.679 277.327 332.287 278.701C332.145 279.209 332.016 279.716 331.899 280.224C331.899 280.224 315.777 287.337 302.405 292.484C298.848 293.855 295.498 295.096 292.695 296.033C291.88 296.307 291.119 296.558 290.411 296.794C288.874 297.35 287.276 297.718 285.651 297.891C284.885 297.903 284.121 297.975 283.367 298.104C277.221 299.102 266.689 303.435 265.539 307.783C265.446 308.13 265.42 308.492 265.463 308.849C265.463 308.849 265.463 308.902 265.463 308.933C266.224 314.263 260.894 313.502 260.894 313.502C260.894 313.502 258.99 327.589 256.324 331.397C254.398 334.138 253.08 340.253 252.913 344.868C252.817 346.306 252.93 347.75 253.248 349.155C253.248 349.193 253.248 349.231 253.248 349.262C253.553 350.282 252.821 353.069 251.58 356.641C250.232 360.562 248.267 365.436 246.379 370.035C243.531 376.98 240.85 383.285 240.683 384.671C240.614 385.288 240.416 386.392 240.142 387.816C239.03 393.619 236.563 404.668 235.344 409.138C234.438 412.474 233.121 417.043 232.214 420.18C232.214 420.271 232.161 420.363 232.138 420.447L266.278 420.112V420.751H266.384H266.339Z" fill="#4C75F2"/>
<path opacity="0.1" d="M278.797 330.993C278.797 330.993 322.205 353.457 337.816 350.792L278.797 330.993Z" fill="#1A1921"/>
<path opacity="0.1" d="M367.135 321.855C367.135 321.855 409.4 335.562 423.489 337.466C437.577 339.37 367.135 321.855 367.135 321.855Z" fill="#1A1921"/>
<path opacity="0.1" d="M414.015 277.749C391.931 281.816 350.351 280.94 332.379 280.323C338.966 256.717 371.088 264.743 371.088 264.743C410.847 256.808 413.893 273.272 414.015 277.749Z" fill="#1A1921"/>
<path d="M414.015 276.226C391.931 280.293 350.351 279.417 332.379 278.8C338.966 255.194 371.088 263.22 371.088 263.22C410.847 255.285 413.893 271.749 414.015 276.226Z" fill="#4C75F2"/>
<path d="M531.246 380.3C531.246 380.3 557.26 376.302 557.77 387.725C558.28 399.147 544.504 407.128 544.504 407.128L531.246 380.3Z" fill="#FBBEBE"/>
<path opacity="0.1" d="M400.528 250.183C399.41 250.683 398.266 251.125 397.102 251.508C388.892 254.341 380.614 257.196 371.971 258.232C363.328 259.268 354.258 258.354 346.718 254.044C345.927 253.597 345.164 253.101 344.434 252.559C343.596 235.806 341.578 219.434 341.578 219.434C341.578 219.434 407.832 188.212 400.216 212.961C397.185 222.959 398.213 237.001 400.528 250.183Z" fill="#1A1921"/>
<path d="M360.342 146.155C359.256 146.442 358.117 146.471 357.016 146.239C355.916 146.008 354.886 145.522 354.006 144.822L355.59 147.023C354.657 147.13 353.711 147.033 352.819 146.737C351.927 146.441 351.111 145.954 350.427 145.309C350.284 147.279 350.365 149.259 350.671 151.211C348.05 151.337 345.469 150.528 343.391 148.926C343.35 149.613 343.521 150.296 343.88 150.883C344.24 151.47 344.771 151.933 345.401 152.208C342.768 151.894 340.111 152.548 337.925 154.049C335.739 155.549 334.174 157.794 333.521 160.364L337.496 160.73C334.372 161.397 331.568 163.108 329.546 165.58C328.328 167.103 327.398 169.053 327.932 170.911C328.465 172.769 331.039 173.957 332.44 172.632C330.447 175.011 328.998 177.797 328.195 180.795C327.393 183.793 327.256 186.93 327.794 189.986C328.156 191.289 328.275 192.647 328.145 193.992C327.893 195.248 327.101 196.337 326.705 197.563C325.944 199.787 326.667 202.201 327.345 204.417L330.917 216.159C332.211 220.401 333.498 224.65 335.189 228.754C336.386 231.349 337.404 234.023 338.235 236.758C339.195 240.443 339.233 244.479 341.281 247.7C342.685 249.728 344.562 251.382 346.749 252.521C354.281 256.831 363.381 257.745 372.001 256.709C380.622 255.673 388.892 252.818 397.094 249.985C398.916 249.436 400.665 248.669 402.303 247.7C407.976 243.984 409.24 236.385 410.299 229.691C411.479 222.228 413.056 214.781 415.851 207.76C417.511 203.579 419.658 199.338 419.293 194.86C418.828 188.913 414.122 184.092 412.957 178.244C412.567 176.289 412.585 174.275 413.01 172.327C413.371 171.167 413.574 169.963 413.612 168.748C413.482 166.296 411.472 164.408 409.583 162.831C405.486 159.41 401.257 156.176 396.896 153.13C396.675 151.607 398.747 150.952 399.683 149.749C401.008 148.051 399.638 145.355 397.627 144.563C395.617 143.771 393.363 144.289 391.268 144.814C391.405 143.742 391.192 142.655 390.66 141.714C390.129 140.773 389.309 140.029 388.32 139.591C387.332 139.154 386.229 139.048 385.176 139.288C384.122 139.528 383.174 140.101 382.473 140.923C381.916 139.648 381.028 138.545 379.9 137.731C378.772 136.916 377.446 136.42 376.06 136.293C371.011 135.897 370.912 139.758 367.684 141.883C364.455 144.007 361.789 141.205 359.307 139.164C358.851 140.318 358.706 141.571 358.888 142.798C359.07 144.025 359.571 145.183 360.342 146.155Z" fill="#3F3D56"/>
<path d="M550.535 403.145C550.535 403.145 549.858 404.76 548.609 407.097C546.719 410.694 544.419 414.06 541.755 417.126L541.549 417.347H540.316L496.345 417.751H495.294L495.164 417.599L486.635 407.478L483.421 403.663L483.292 403.503L483.018 403.183L482.865 403.001L482.667 402.765L476.415 395.348L478.7 385.829L482.591 369.792L482.69 369.403L483.452 366.357L483.993 364.073L485.805 356.625L492.019 331.001L503.061 336.712L514.705 357.273L520.957 368.314H524.384C525.032 368.314 526.517 369.563 528.009 371.002C528.542 371.513 529.075 372.053 529.532 372.525C530.888 373.927 531.962 375.13 531.962 375.13C531.962 375.13 537.513 375.252 539.006 379.623C539.083 379.834 539.146 380.05 539.196 380.27C539.692 381.988 540.336 383.659 541.123 385.265C542.105 387.405 543.339 389.834 544.588 392.263C546.91 396.718 549.271 400.96 550.139 402.498L550.246 402.688L550.535 403.145Z" fill="#4C75F2"/>
<path opacity="0.1" d="M485.12 368.764L485.043 369.853V369.929L484.914 371.68L483.901 385.776L482.675 402.757L482.325 407.539L481.563 417.774V417.903L400.079 418.665L266.361 420.111V420.751H266.255V420.111V419.898L266.598 408.963L267.252 387.596L267.816 369.479L267.869 367.675C267.903 366.585 268.158 365.514 268.619 364.527C269.08 363.539 269.738 362.656 270.551 361.932C271.365 361.207 272.319 360.655 273.353 360.311C274.387 359.967 275.48 359.838 276.566 359.93C280.16 360.235 284.829 360.608 290.411 361.004L292.695 361.171C324.931 363.41 384.506 366.304 444.621 362.694C445.885 362.626 447.157 362.55 448.429 362.458C457.75 361.872 467.064 361.118 476.286 360.174C477.452 360.052 478.63 360.187 479.738 360.569C480.846 360.952 481.857 361.572 482.699 362.388C483.541 363.203 484.194 364.193 484.613 365.288C485.031 366.383 485.204 367.556 485.12 368.726V368.764Z" fill="#1A1921"/>
<path d="M266.339 420.751V420.111L400.079 418.657L481.563 417.896H481.792V417.766L482.553 407.532L482.881 402.963L484.13 385.745L485.112 372.114V371.779C485.157 371.151 485.129 370.52 485.028 369.898C485.032 369.873 485.032 369.847 485.028 369.822C484.819 368.537 484.296 367.323 483.505 366.289C482.667 365.213 481.568 364.37 480.313 363.837C479.058 363.304 477.688 363.099 476.331 363.243C467.109 364.187 457.796 364.941 448.475 365.527C447.203 365.619 445.931 365.695 444.667 365.763C384.551 369.335 324.977 366.441 292.741 364.24L290.456 364.073C284.874 363.677 280.206 363.311 276.612 362.999C274.634 362.832 272.665 363.404 271.085 364.603C269.504 365.803 268.423 367.545 268.052 369.495C267.975 369.907 267.929 370.324 267.915 370.744L267.397 387.618L266.689 408.994L266.354 419.929V420.142V420.782L266.339 420.751Z" fill="#3F3D56"/>
<path opacity="0.1" d="M485.348 374.102L484.411 385.775L483.018 403.176L482.668 407.532L481.906 417.286L481.86 417.774V417.903L481.746 419.03L481.83 417.903H481.609L400.125 418.665L266.362 420.111V419.898L266.735 408.963L267.496 387.595L267.984 373.394C268.008 372.586 268.233 371.797 268.64 371.098C269.047 370.4 269.623 369.815 270.314 369.396C271.176 368.867 272.185 368.627 273.193 368.71C274.792 368.84 276.757 368.992 279.049 369.16C282.773 369.434 287.365 369.754 292.711 370.089C302.611 370.713 315.031 371.383 329.264 371.931C368.864 373.454 422.324 373.965 473.103 369.517C475.387 369.319 477.748 369.099 480.055 368.878C480.969 368.787 481.889 368.961 482.706 369.38C482.937 369.496 483.156 369.633 483.361 369.792C484.023 370.272 484.549 370.918 484.884 371.665C484.961 371.814 485.025 371.969 485.074 372.129C485.303 372.76 485.396 373.432 485.348 374.102Z" fill="#1A1921"/>
<path opacity="0.1" d="M227.013 384.527V386.956C227.014 387.839 226.763 388.704 226.291 389.451C225.82 390.198 225.146 390.796 224.348 391.175L193.81 391.761C192.998 391.389 192.31 390.791 191.828 390.039C191.346 389.287 191.091 388.412 191.092 387.519V385.235L227.013 384.527Z" fill="#1A1921"/>
<path d="M227.394 392.606L187.604 393.368V386.765L227.394 386.004V392.606Z" fill="#3F3D56"/>
<path opacity="0.1" d="M227.394 392.606L187.604 393.368V386.765L227.394 386.004V392.606Z" fill="#1A1921"/>
<path d="M228.917 392.606L189.127 393.368V386.765L228.917 386.004V392.606Z" fill="#3F3D56"/>
<g opacity="0.1">
<path opacity="0.1" d="M360.655 143.657C359.911 142.69 359.416 141.555 359.215 140.352C359.032 141.528 359.142 142.731 359.535 143.855C359.913 143.82 360.288 143.754 360.655 143.657Z" fill="#1A1921"/>
<path opacity="0.1" d="M350.983 148.713C350.84 147.78 350.746 146.839 350.701 145.896C350.701 146.832 350.701 147.777 350.701 148.721L350.983 148.713Z" fill="#1A1921"/>
<path opacity="0.1" d="M413.048 174.124C413.09 173.446 413.182 172.772 413.322 172.106C413.683 170.948 413.887 169.747 413.932 168.535C413.915 168.263 413.874 167.993 413.81 167.728C413.68 168.428 413.475 169.129 413.322 169.822C413.018 171.235 412.926 172.685 413.048 174.124Z" fill="#1A1921"/>
<path opacity="0.1" d="M397.208 150.594L398.038 151.196C398.738 150.69 399.393 150.124 399.996 149.505C400.282 149.109 400.46 148.644 400.51 148.158C400.561 147.671 400.483 147.18 400.285 146.733C400.209 146.907 400.112 147.071 399.996 147.221C399.059 148.424 396.987 149.086 397.208 150.594Z" fill="#1A1921"/>
<path opacity="0.1" d="M334.633 157.92C334.355 158.475 334.134 159.057 333.971 159.656C335.162 158.991 336.445 158.506 337.778 158.217L334.633 157.92Z" fill="#1A1921"/>
<path opacity="0.1" d="M345.135 149.635C344.634 149.359 344.156 149.046 343.703 148.698C343.684 148.999 343.707 149.302 343.771 149.596C344.226 149.575 344.682 149.588 345.135 149.635Z" fill="#1A1921"/>
<path opacity="0.1" d="M419.59 194.502C419.278 198.195 417.556 201.752 416.163 205.255C413.368 212.276 411.792 219.723 410.611 227.193C409.553 233.887 408.327 241.487 402.615 245.195C400.983 246.17 399.236 246.937 397.414 247.48C389.205 250.32 380.927 253.168 372.283 254.204C363.64 255.239 354.57 254.333 347.031 250.023C344.845 248.882 342.969 247.228 341.563 245.203C339.53 241.982 339.492 237.946 338.517 234.26C337.686 231.523 336.668 228.847 335.471 226.249C333.788 222.152 332.493 217.873 331.206 213.661C330.013 209.747 328.823 205.831 327.635 201.912C327.243 200.733 326.953 199.523 326.766 198.294C326.469 200.244 327.048 202.285 327.635 204.196C328.823 208.12 330.013 212.037 331.206 215.946C332.493 220.187 333.788 224.437 335.471 228.534C336.668 231.131 337.686 233.808 338.517 236.544C339.476 240.23 339.515 244.266 341.563 247.487C342.969 249.513 344.845 251.167 347.031 252.308C354.57 256.618 363.663 257.524 372.283 256.488C380.904 255.453 389.174 252.604 397.414 249.764C399.236 249.222 400.983 248.455 402.615 247.48C408.289 243.771 409.553 236.171 410.611 229.478C411.792 222.007 413.368 214.56 416.163 207.539C417.823 203.366 419.971 199.124 419.605 194.639C419.605 194.594 419.59 194.548 419.59 194.502Z" fill="#1A1921"/>
<path opacity="0.1" d="M328.442 191.555C328.442 191.555 328.442 191.502 328.442 191.471C328.579 190.129 328.46 188.772 328.091 187.473C327.94 186.638 327.84 185.793 327.794 184.945C327.707 186.556 327.806 188.171 328.091 189.758C328.213 190.352 328.35 190.954 328.442 191.555Z" fill="#1A1921"/>
<path opacity="0.1" d="M330.764 172.929C331.35 171.945 332.015 171.01 332.752 170.134C331.358 171.467 328.784 170.279 328.244 168.428C328.044 169.177 328.044 169.964 328.244 170.713C328.431 171.272 328.763 171.771 329.206 172.16C329.648 172.549 330.186 172.814 330.764 172.929Z" fill="#1A1921"/>
</g>
<path opacity="0.1" d="M520.965 368.307C520.965 368.307 523.379 377.064 520.965 384.679C518.551 392.294 520.965 368.307 520.965 368.307Z" fill="#1A1921"/>
<path opacity="0.1" d="M531.246 377.239C531.246 377.239 532.259 388.357 529.974 390.329C527.689 392.302 531.246 377.239 531.246 377.239Z" fill="#1A1921"/>
<path d="M151.538 261.088L228.917 260.326" stroke="#4C75F2" stroke-width="2" stroke-miterlimit="10"/>
<path d="M151.538 270.583L228.917 269.83" stroke="#4C75F2" stroke-width="2" stroke-miterlimit="10"/>
<path d="M151.538 280.087L228.917 279.326" stroke="#4C75F2" stroke-width="2" stroke-miterlimit="10"/>
</g>
<defs>
<clipPath id="clip0">
<rect width="793" height="422" fill="white"/>
</clipPath>
</defs>
</svg>
